%TF.GenerationSoftware,KiCad,Pcbnew,10.0.5*%
%TF.CreationDate,2026-09-23T15:55:58+08:00*%
%TF.ProjectId,FarmMesh-Node,4661726d-4d65-4736-982d-4e6f64652e6b,rev?*%
%TF.SameCoordinates,Original*%
%TF.FileFunction,Soldermask,Top*%
%TF.FilePolarity,Negative*%
%FSLAX46Y46*%
G04 Gerber Fmt 4.6, Leading zero omitted, Abs format (unit mm)*
G04 Created by KiCad (PCBNEW 10.0.5) date 2026-09-23 15:55:58*
%MOMM*%
%LPD*%
G01*
G04 APERTURE LIST*
G04 Aperture macros list*
%AMRoundRect*
0 Rectangle with rounded corners*
0 $1 Rounding radius*
0 $2 $3 $4 $5 $6 $7 $8 $9 X,Y pos of 4 corners*
0 Add a 4 corners polygon primitive as box body*
4,1,4,$2,$3,$4,$5,$6,$7,$8,$9,$2,$3,0*
0 Add four circle primitives for the rounded corners*
1,1,$1+$1,$2,$3*
1,1,$1+$1,$4,$5*
1,1,$1+$1,$6,$7*
1,1,$1+$1,$8,$9*
0 Add four rect primitives between the rounded corners*
20,1,$1+$1,$2,$3,$4,$5,0*
20,1,$1+$1,$4,$5,$6,$7,0*
20,1,$1+$1,$6,$7,$8,$9,0*
20,1,$1+$1,$8,$9,$2,$3,0*%
%AMFreePoly0*
4,1,17,1.395000,0.765000,0.855000,0.765000,0.855000,0.535000,1.395000,0.535000,1.395000,0.115000,0.855000,0.115000,0.855000,-0.115000,1.395000,-0.115000,1.395000,-0.535000,0.855000,-0.535000,0.855000,-0.765000,1.395000,-0.765000,1.395000,-1.185000,-0.855000,-1.185000,-0.855000,1.185000,1.395000,1.185000,1.395000,0.765000,1.395000,0.765000,$1*%
G04 Aperture macros list end*
%ADD10RoundRect,0.225000X-0.250000X0.225000X-0.250000X-0.225000X0.250000X-0.225000X0.250000X0.225000X0*%
%ADD11RoundRect,0.200000X-0.275000X0.200000X-0.275000X-0.200000X0.275000X-0.200000X0.275000X0.200000X0*%
%ADD12RoundRect,0.135000X0.185000X-0.135000X0.185000X0.135000X-0.185000X0.135000X-0.185000X-0.135000X0*%
%ADD13RoundRect,0.140000X0.140000X0.170000X-0.140000X0.170000X-0.140000X-0.170000X0.140000X-0.170000X0*%
%ADD14RoundRect,0.140000X-0.140000X-0.170000X0.140000X-0.170000X0.140000X0.170000X-0.140000X0.170000X0*%
%ADD15RoundRect,0.225000X0.225000X0.250000X-0.225000X0.250000X-0.225000X-0.250000X0.225000X-0.250000X0*%
%ADD16RoundRect,0.200000X0.200000X0.275000X-0.200000X0.275000X-0.200000X-0.275000X0.200000X-0.275000X0*%
%ADD17C,1.500000*%
%ADD18RoundRect,0.140000X0.170000X-0.140000X0.170000X0.140000X-0.170000X0.140000X-0.170000X-0.140000X0*%
%ADD19RoundRect,0.200000X0.275000X-0.200000X0.275000X0.200000X-0.275000X0.200000X-0.275000X-0.200000X0*%
%ADD20RoundRect,0.225000X-0.225000X-0.250000X0.225000X-0.250000X0.225000X0.250000X-0.225000X0.250000X0*%
%ADD21RoundRect,0.200000X-0.200000X-0.275000X0.200000X-0.275000X0.200000X0.275000X-0.200000X0.275000X0*%
%ADD22RoundRect,0.135000X-0.185000X0.135000X-0.185000X-0.135000X0.185000X-0.135000X0.185000X0.135000X0*%
%ADD23RoundRect,0.140000X-0.170000X0.140000X-0.170000X-0.140000X0.170000X-0.140000X0.170000X0.140000X0*%
%ADD24RoundRect,0.135000X0.135000X0.185000X-0.135000X0.185000X-0.135000X-0.185000X0.135000X-0.185000X0*%
%ADD25RoundRect,0.135000X-0.135000X-0.185000X0.135000X-0.185000X0.135000X0.185000X-0.135000X0.185000X0*%
%ADD26RoundRect,0.250000X-0.475000X0.250000X-0.475000X-0.250000X0.475000X-0.250000X0.475000X0.250000X0*%
%ADD27RoundRect,0.250000X0.800000X0.450000X-0.800000X0.450000X-0.800000X-0.450000X0.800000X-0.450000X0*%
%ADD28RoundRect,0.225000X0.250000X-0.225000X0.250000X0.225000X-0.250000X0.225000X-0.250000X-0.225000X0*%
%ADD29R,0.900000X1.500000*%
%ADD30R,1.300000X1.300000*%
%ADD31R,1.500000X0.900000*%
%ADD32RoundRect,0.250000X0.450000X-0.800000X0.450000X0.800000X-0.450000X0.800000X-0.450000X-0.800000X0*%
%ADD33R,1.700000X1.700000*%
%ADD34C,1.700000*%
%ADD35RoundRect,0.250000X-1.250000X-0.550000X1.250000X-0.550000X1.250000X0.550000X-1.250000X0.550000X0*%
%ADD36C,3.200000*%
%ADD37RoundRect,0.250001X-1.099999X-1.099999X1.099999X-1.099999X1.099999X1.099999X-1.099999X1.099999X0*%
%ADD38C,2.700000*%
%ADD39RoundRect,0.250000X-0.250000X-0.475000X0.250000X-0.475000X0.250000X0.475000X-0.250000X0.475000X0*%
%ADD40RoundRect,0.250000X0.475000X-0.250000X0.475000X0.250000X-0.475000X0.250000X-0.475000X-0.250000X0*%
%ADD41RoundRect,0.150000X-0.512500X-0.150000X0.512500X-0.150000X0.512500X0.150000X-0.512500X0.150000X0*%
%ADD42RoundRect,0.250000X-0.450000X-0.350000X0.450000X-0.350000X0.450000X0.350000X-0.450000X0.350000X0*%
%ADD43RoundRect,0.249999X0.710001X3.000001X-0.710001X3.000001X-0.710001X-3.000001X0.710001X-3.000001X0*%
%ADD44RoundRect,0.162500X-0.650000X-0.162500X0.650000X-0.162500X0.650000X0.162500X-0.650000X0.162500X0*%
%ADD45RoundRect,0.105000X-0.245000X-0.105000X0.245000X-0.105000X0.245000X0.105000X-0.245000X0.105000X0*%
%ADD46FreePoly0,0.000000*%
%ADD47RoundRect,0.250000X-0.800000X-0.450000X0.800000X-0.450000X0.800000X0.450000X-0.800000X0.450000X0*%
%ADD48RoundRect,0.150000X-0.150000X0.512500X-0.150000X-0.512500X0.150000X-0.512500X0.150000X0.512500X0*%
%ADD49RoundRect,0.250000X0.550000X-1.250000X0.550000X1.250000X-0.550000X1.250000X-0.550000X-1.250000X0*%
%ADD50RoundRect,0.050000X-0.350000X-0.050000X0.350000X-0.050000X0.350000X0.050000X-0.350000X0.050000X0*%
%ADD51RoundRect,0.050000X-0.050000X-0.350000X0.050000X-0.350000X0.050000X0.350000X-0.050000X0.350000X0*%
%ADD52R,3.400000X3.400000*%
%ADD53RoundRect,0.250000X-0.550000X1.250000X-0.550000X-1.250000X0.550000X-1.250000X0.550000X1.250000X0*%
%ADD54RoundRect,0.250000X0.550000X-1.500000X0.550000X1.500000X-0.550000X1.500000X-0.550000X-1.500000X0*%
%ADD55R,3.150000X1.960000*%
%ADD56C,0.650000*%
%ADD57RoundRect,0.150000X0.150000X0.405000X-0.150000X0.405000X-0.150000X-0.405000X0.150000X-0.405000X0*%
%ADD58RoundRect,0.150000X0.150000X0.425000X-0.150000X0.425000X-0.150000X-0.425000X0.150000X-0.425000X0*%
%ADD59RoundRect,0.075000X0.075000X0.500000X-0.075000X0.500000X-0.075000X-0.500000X0.075000X-0.500000X0*%
%ADD60O,1.000000X2.100000*%
%ADD61O,1.000000X1.800000*%
%ADD62RoundRect,0.100000X-0.637500X-0.100000X0.637500X-0.100000X0.637500X0.100000X-0.637500X0.100000X0*%
%ADD63R,3.050000X7.560000*%
%ADD64RoundRect,0.112500X0.187500X0.112500X-0.187500X0.112500X-0.187500X-0.112500X0.187500X-0.112500X0*%
%ADD65RoundRect,0.250000X-0.450000X0.800000X-0.450000X-0.800000X0.450000X-0.800000X0.450000X0.800000X0*%
%ADD66R,0.700000X1.700000*%
%ADD67RoundRect,0.075000X0.650000X0.075000X-0.650000X0.075000X-0.650000X-0.075000X0.650000X-0.075000X0*%
G04 APERTURE END LIST*
D10*
%TO.C,C10*%
X78300000Y-36725000D03*
X78300000Y-38275000D03*
%TD*%
D11*
%TO.C,R211*%
X19000000Y-30775000D03*
X19000000Y-32425000D03*
%TD*%
D12*
%TO.C,R321*%
X47300000Y-59010000D03*
X47300000Y-57990000D03*
%TD*%
D13*
%TO.C,C104*%
X46665000Y-32830000D03*
X45705000Y-32830000D03*
%TD*%
D14*
%TO.C,C103*%
X52520000Y-43000000D03*
X53480000Y-43000000D03*
%TD*%
D15*
%TO.C,C2*%
X75275000Y-23300000D03*
X73725000Y-23300000D03*
%TD*%
D16*
%TO.C,R314*%
X9225000Y-75150000D03*
X7575000Y-75150000D03*
%TD*%
D11*
%TO.C,R401*%
X85500000Y-67575000D03*
X85500000Y-69225000D03*
%TD*%
D17*
%TO.C,TP104*%
X68000000Y-45000000D03*
%TD*%
D18*
%TO.C,C119*%
X49000000Y-41680000D03*
X49000000Y-40720000D03*
%TD*%
D17*
%TO.C,TP101*%
X40000000Y-64000000D03*
%TD*%
D19*
%TO.C,R411*%
X81000000Y-69225000D03*
X81000000Y-67575000D03*
%TD*%
D20*
%TO.C,C128*%
X48725000Y-21600000D03*
X50275000Y-21600000D03*
%TD*%
D21*
%TO.C,R404*%
X62175000Y-56000000D03*
X63825000Y-56000000D03*
%TD*%
D22*
%TO.C,R102*%
X42400000Y-31790000D03*
X42400000Y-32810000D03*
%TD*%
D23*
%TO.C,C122*%
X51400000Y-57820000D03*
X51400000Y-58780000D03*
%TD*%
D24*
%TO.C,R419*%
X64510000Y-50100000D03*
X63490000Y-50100000D03*
%TD*%
D16*
%TO.C,R305*%
X9225000Y-82600000D03*
X7575000Y-82600000D03*
%TD*%
D21*
%TO.C,R302*%
X7575000Y-71300000D03*
X9225000Y-71300000D03*
%TD*%
D25*
%TO.C,R217*%
X36790000Y-48100000D03*
X37810000Y-48100000D03*
%TD*%
D11*
%TO.C,R212*%
X26100000Y-30775000D03*
X26100000Y-32425000D03*
%TD*%
D26*
%TO.C,C3*%
X85200000Y-26550000D03*
X85200000Y-28450000D03*
%TD*%
D27*
%TO.C,SW301*%
X31050000Y-66250000D03*
X21950000Y-66250000D03*
X31050000Y-61750000D03*
X21950000Y-61750000D03*
%TD*%
D20*
%TO.C,C126*%
X60225000Y-26000000D03*
X61775000Y-26000000D03*
%TD*%
D14*
%TO.C,C102*%
X52520000Y-43940000D03*
X53480000Y-43940000D03*
%TD*%
D13*
%TO.C,C112*%
X45780000Y-56700000D03*
X44820000Y-56700000D03*
%TD*%
D19*
%TO.C,R410*%
X82800000Y-69225000D03*
X82800000Y-67575000D03*
%TD*%
D13*
%TO.C,C121*%
X42480000Y-49800000D03*
X41520000Y-49800000D03*
%TD*%
D19*
%TO.C,R214*%
X24850000Y-9225000D03*
X24850000Y-7575000D03*
%TD*%
D28*
%TO.C,C402*%
X87600000Y-69175000D03*
X87600000Y-67625000D03*
%TD*%
D29*
%TO.C,U401*%
X88910000Y-71250000D03*
X87640000Y-71250000D03*
X86370000Y-71250000D03*
X85100000Y-71250000D03*
X83830000Y-71250000D03*
X82560000Y-71250000D03*
X81290000Y-71250000D03*
X80020000Y-71250000D03*
X78750000Y-71250000D03*
X77480000Y-71250000D03*
X76210000Y-71250000D03*
X74940000Y-71250000D03*
X73670000Y-71250000D03*
X72400000Y-71250000D03*
X72400000Y-88750000D03*
X73670000Y-88750000D03*
X74940000Y-88750000D03*
X76210000Y-88750000D03*
X77480000Y-88750000D03*
X78750000Y-88750000D03*
X80020000Y-88750000D03*
X81290000Y-88750000D03*
X82560000Y-88750000D03*
X83830000Y-88750000D03*
X85100000Y-88750000D03*
X86370000Y-88750000D03*
X87640000Y-88750000D03*
X88910000Y-88750000D03*
D30*
X82022000Y-79129800D03*
X80322000Y-79129800D03*
X78622000Y-79129800D03*
X82022000Y-80829800D03*
X80322000Y-80829800D03*
X78622000Y-80829800D03*
X82022000Y-82529800D03*
X80322000Y-82529800D03*
X78622000Y-82529800D03*
D31*
X90350000Y-84000000D03*
X90350000Y-82730000D03*
X90350000Y-81460000D03*
%TD*%
D32*
%TO.C,SW202*%
X33750000Y-18050000D03*
X33750000Y-8950000D03*
X38250000Y-18050000D03*
X38250000Y-8950000D03*
%TD*%
D33*
%TO.C,J301*%
X4000000Y-88000000D03*
D34*
X4000000Y-85460000D03*
X4000000Y-82920000D03*
X4000000Y-80380000D03*
X4000000Y-77840000D03*
X4000000Y-75300000D03*
%TD*%
D19*
%TO.C,R403*%
X77400000Y-92425000D03*
X77400000Y-90775000D03*
%TD*%
D10*
%TO.C,C124*%
X53100000Y-57525000D03*
X53100000Y-59075000D03*
%TD*%
D20*
%TO.C,C302*%
X30825000Y-87600000D03*
X32375000Y-87600000D03*
%TD*%
D15*
%TO.C,C5*%
X89475000Y-30000000D03*
X87925000Y-30000000D03*
%TD*%
D11*
%TO.C,R203*%
X22600000Y-7575000D03*
X22600000Y-9225000D03*
%TD*%
D31*
%TO.C,U301*%
X28750000Y-88910000D03*
X28750000Y-87640000D03*
X28750000Y-86370000D03*
X28750000Y-85100000D03*
X28750000Y-83830000D03*
X28750000Y-82560000D03*
X28750000Y-81290000D03*
X28750000Y-80020000D03*
X28750000Y-78750000D03*
X28750000Y-77480000D03*
X28750000Y-76210000D03*
X28750000Y-74940000D03*
X28750000Y-73670000D03*
X28750000Y-72400000D03*
X11250000Y-72400000D03*
X11250000Y-73670000D03*
X11250000Y-74940000D03*
X11250000Y-76210000D03*
X11250000Y-77480000D03*
X11250000Y-78750000D03*
X11250000Y-80020000D03*
X11250000Y-81290000D03*
X11250000Y-82560000D03*
X11250000Y-83830000D03*
X11250000Y-85100000D03*
X11250000Y-86370000D03*
X11250000Y-87640000D03*
X11250000Y-88910000D03*
D30*
X20870200Y-82022000D03*
X20870200Y-80322000D03*
X20870200Y-78622000D03*
X19170200Y-82022000D03*
X19170200Y-80322000D03*
X19170200Y-78622000D03*
X17470200Y-82022000D03*
X17470200Y-80322000D03*
X17470200Y-78622000D03*
D29*
X16000000Y-90350000D03*
X17270000Y-90350000D03*
X18540000Y-90350000D03*
%TD*%
D35*
%TO.C,C303*%
X33800000Y-93300000D03*
X38200000Y-93300000D03*
%TD*%
D26*
%TO.C,C4*%
X87400000Y-26550000D03*
X87400000Y-28450000D03*
%TD*%
D19*
%TO.C,R402*%
X71300000Y-92425000D03*
X71300000Y-90775000D03*
%TD*%
D36*
%TO.C,H4*%
X95000000Y-95000000D03*
%TD*%
D37*
%TO.C,J1*%
X88000000Y-40000000D03*
D38*
X91960000Y-40000000D03*
%TD*%
D17*
%TO.C,TP102*%
X60000000Y-60000000D03*
%TD*%
D25*
%TO.C,R219*%
X36790000Y-50700000D03*
X37810000Y-50700000D03*
%TD*%
D24*
%TO.C,R421*%
X62510000Y-48800000D03*
X61490000Y-48800000D03*
%TD*%
D11*
%TO.C,R4*%
X78300000Y-33575000D03*
X78300000Y-35225000D03*
%TD*%
D39*
%TO.C,C301*%
X34650000Y-87800000D03*
X36550000Y-87800000D03*
%TD*%
D23*
%TO.C,C113*%
X48700000Y-57820000D03*
X48700000Y-58780000D03*
%TD*%
D40*
%TO.C,C401*%
X87800000Y-65350000D03*
X87800000Y-63450000D03*
%TD*%
D12*
%TO.C,R317*%
X40700000Y-60610000D03*
X40700000Y-59590000D03*
%TD*%
D19*
%TO.C,R413*%
X72100000Y-69225000D03*
X72100000Y-67575000D03*
%TD*%
D33*
%TO.C,J2*%
X97000000Y-24000000D03*
D34*
X97000000Y-26540000D03*
%TD*%
D28*
%TO.C,C404*%
X85500000Y-65575000D03*
X85500000Y-64025000D03*
%TD*%
D41*
%TO.C,U104*%
X57862500Y-17050000D03*
X57862500Y-18000000D03*
X57862500Y-18950000D03*
X60137500Y-18950000D03*
X60137500Y-18000000D03*
X60137500Y-17050000D03*
%TD*%
D17*
%TO.C,TP1*%
X93000000Y-48000000D03*
%TD*%
D21*
%TO.C,R104*%
X62175000Y-13000000D03*
X63825000Y-13000000D03*
%TD*%
%TO.C,R6*%
X69175000Y-31000000D03*
X70825000Y-31000000D03*
%TD*%
D28*
%TO.C,C127*%
X58000000Y-7775000D03*
X58000000Y-6225000D03*
%TD*%
D13*
%TO.C,C111*%
X42480000Y-52200000D03*
X41520000Y-52200000D03*
%TD*%
D19*
%TO.C,R220*%
X20000000Y-9225000D03*
X20000000Y-7575000D03*
%TD*%
D11*
%TO.C,R202*%
X28700000Y-7575000D03*
X28700000Y-9225000D03*
%TD*%
D21*
%TO.C,R113*%
X57175000Y-26000000D03*
X58825000Y-26000000D03*
%TD*%
D42*
%TO.C,Y101*%
X48900000Y-64850000D03*
X51100000Y-64850000D03*
X51100000Y-63150000D03*
X48900000Y-63150000D03*
%TD*%
D13*
%TO.C,C117*%
X44680000Y-41900000D03*
X43720000Y-41900000D03*
%TD*%
D26*
%TO.C,C201*%
X12200000Y-34650000D03*
X12200000Y-36550000D03*
%TD*%
D43*
%TO.C,L1*%
X82410000Y-17000000D03*
X77590000Y-17000000D03*
%TD*%
D10*
%TO.C,C204*%
X14500000Y-34425000D03*
X14500000Y-35975000D03*
%TD*%
D39*
%TO.C,C11*%
X84750000Y-33200000D03*
X86650000Y-33200000D03*
%TD*%
D20*
%TO.C,C304*%
X34425000Y-85500000D03*
X35975000Y-85500000D03*
%TD*%
D21*
%TO.C,R116*%
X54175000Y-13000000D03*
X55825000Y-13000000D03*
%TD*%
D11*
%TO.C,R7*%
X88300000Y-33375000D03*
X88300000Y-35025000D03*
%TD*%
D26*
%TO.C,C8*%
X74800000Y-26550000D03*
X74800000Y-28450000D03*
%TD*%
D33*
%TO.C,J201*%
X12000000Y-4000000D03*
D34*
X14540000Y-4000000D03*
X17080000Y-4000000D03*
X19620000Y-4000000D03*
X22160000Y-4000000D03*
X24700000Y-4000000D03*
%TD*%
D11*
%TO.C,R405*%
X82600000Y-90775000D03*
X82600000Y-92425000D03*
%TD*%
D25*
%TO.C,R216*%
X38990000Y-46800000D03*
X40010000Y-46800000D03*
%TD*%
D44*
%TO.C,U102*%
X39412500Y-35295000D03*
X39412500Y-36565000D03*
X39412500Y-37835000D03*
X39412500Y-39105000D03*
X46587500Y-39105000D03*
X46587500Y-37835000D03*
X46587500Y-36565000D03*
X46587500Y-35295000D03*
%TD*%
D14*
%TO.C,C115*%
X57525000Y-50500000D03*
X58485000Y-50500000D03*
%TD*%
D21*
%TO.C,R303*%
X7575000Y-77400000D03*
X9225000Y-77400000D03*
%TD*%
D20*
%TO.C,C9*%
X71025000Y-28700000D03*
X72575000Y-28700000D03*
%TD*%
D21*
%TO.C,R312*%
X30775000Y-73900000D03*
X32425000Y-73900000D03*
%TD*%
D45*
%TO.C,Q1*%
X90800000Y-28725000D03*
X90800000Y-29375000D03*
X90800000Y-30025000D03*
X90800000Y-30675000D03*
D46*
X92755000Y-29700000D03*
%TD*%
D22*
%TO.C,R101*%
X55200000Y-41140000D03*
X55200000Y-42160000D03*
%TD*%
D12*
%TO.C,R318*%
X42900000Y-59010000D03*
X42900000Y-57990000D03*
%TD*%
D16*
%TO.C,R301*%
X32425000Y-85500000D03*
X30775000Y-85500000D03*
%TD*%
D18*
%TO.C,C120*%
X49000000Y-39280000D03*
X49000000Y-38320000D03*
%TD*%
D22*
%TO.C,R110*%
X50000000Y-40690000D03*
X50000000Y-41710000D03*
%TD*%
D14*
%TO.C,C114*%
X57020000Y-54500000D03*
X57980000Y-54500000D03*
%TD*%
D11*
%TO.C,R420*%
X80000000Y-90775000D03*
X80000000Y-92425000D03*
%TD*%
D33*
%TO.C,J101*%
X63000000Y-35000000D03*
D34*
X63000000Y-37540000D03*
X63000000Y-40080000D03*
X63000000Y-42620000D03*
X63000000Y-45160000D03*
%TD*%
D11*
%TO.C,R415*%
X73450000Y-90775000D03*
X73450000Y-92425000D03*
%TD*%
D47*
%TO.C,SW102*%
X60450000Y-5750000D03*
X69550000Y-5750000D03*
X60450000Y-10250000D03*
X69550000Y-10250000D03*
%TD*%
D48*
%TO.C,D101*%
X50950000Y-10862500D03*
X50000000Y-10862500D03*
X49050000Y-10862500D03*
X49050000Y-13137500D03*
X50000000Y-13137500D03*
X50950000Y-13137500D03*
%TD*%
D49*
%TO.C,C403*%
X93300000Y-66200000D03*
X93300000Y-61800000D03*
%TD*%
D22*
%TO.C,R111*%
X51000000Y-40690000D03*
X51000000Y-41710000D03*
%TD*%
D13*
%TO.C,C105*%
X49105000Y-60420000D03*
X48145000Y-60420000D03*
%TD*%
D21*
%TO.C,R311*%
X30775000Y-81000000D03*
X32425000Y-81000000D03*
%TD*%
%TO.C,R204*%
X37675000Y-44000000D03*
X39325000Y-44000000D03*
%TD*%
D50*
%TO.C,U101*%
X45050000Y-46200000D03*
X45050000Y-46600000D03*
X45050000Y-47000000D03*
X45050000Y-47400000D03*
X45050000Y-47800000D03*
X45050000Y-48200000D03*
X45050000Y-48600000D03*
X45050000Y-49000000D03*
X45050000Y-49400000D03*
X45050000Y-49800000D03*
X45050000Y-50200000D03*
X45050000Y-50600000D03*
X45050000Y-51000000D03*
X45050000Y-51400000D03*
X45050000Y-51800000D03*
X45050000Y-52200000D03*
X45050000Y-52600000D03*
X45050000Y-53000000D03*
X45050000Y-53400000D03*
X45050000Y-53800000D03*
D51*
X46200000Y-54950000D03*
X46600000Y-54950000D03*
X47000000Y-54950000D03*
X47400000Y-54950000D03*
X47800000Y-54950000D03*
X48200000Y-54950000D03*
X48600000Y-54950000D03*
X49000000Y-54950000D03*
X49400000Y-54950000D03*
X49800000Y-54950000D03*
X50200000Y-54950000D03*
X50600000Y-54950000D03*
X51000000Y-54950000D03*
X51400000Y-54950000D03*
X51800000Y-54950000D03*
X52200000Y-54950000D03*
X52600000Y-54950000D03*
X53000000Y-54950000D03*
X53400000Y-54950000D03*
X53800000Y-54950000D03*
D50*
X54950000Y-53800000D03*
X54950000Y-53400000D03*
X54950000Y-53000000D03*
X54950000Y-52600000D03*
X54950000Y-52200000D03*
X54950000Y-51800000D03*
X54950000Y-51400000D03*
X54950000Y-51000000D03*
X54950000Y-50600000D03*
X54950000Y-50200000D03*
X54950000Y-49800000D03*
X54950000Y-49400000D03*
X54950000Y-49000000D03*
X54950000Y-48600000D03*
X54950000Y-48200000D03*
X54950000Y-47800000D03*
X54950000Y-47400000D03*
X54950000Y-47000000D03*
X54950000Y-46600000D03*
X54950000Y-46200000D03*
D51*
X53800000Y-45050000D03*
X53400000Y-45050000D03*
X53000000Y-45050000D03*
X52600000Y-45050000D03*
X52200000Y-45050000D03*
X51800000Y-45050000D03*
X51400000Y-45050000D03*
X51000000Y-45050000D03*
X50600000Y-45050000D03*
X50200000Y-45050000D03*
X49800000Y-45050000D03*
X49400000Y-45050000D03*
X49000000Y-45050000D03*
X48600000Y-45050000D03*
X48200000Y-45050000D03*
X47800000Y-45050000D03*
X47400000Y-45050000D03*
X47000000Y-45050000D03*
X46600000Y-45050000D03*
X46200000Y-45050000D03*
D52*
X50000000Y-50000000D03*
%TD*%
D32*
%TO.C,SW101*%
X28750000Y-48550000D03*
X28750000Y-39450000D03*
X33250000Y-48550000D03*
X33250000Y-39450000D03*
%TD*%
D53*
%TO.C,C203*%
X6700000Y-33800000D03*
X6700000Y-38200000D03*
%TD*%
D19*
%TO.C,R115*%
X63000000Y-21325000D03*
X63000000Y-19675000D03*
%TD*%
D24*
%TO.C,R416*%
X62510000Y-54000000D03*
X61490000Y-54000000D03*
%TD*%
D21*
%TO.C,R5*%
X84875000Y-30300000D03*
X86525000Y-30300000D03*
%TD*%
D14*
%TO.C,C123*%
X57520000Y-49500000D03*
X58480000Y-49500000D03*
%TD*%
D19*
%TO.C,R205*%
X17400000Y-9225000D03*
X17400000Y-7575000D03*
%TD*%
D25*
%TO.C,R218*%
X38990000Y-49400000D03*
X40010000Y-49400000D03*
%TD*%
D12*
%TO.C,R319*%
X45100000Y-60610000D03*
X45100000Y-59590000D03*
%TD*%
D27*
%TO.C,SW302*%
X18050000Y-66250000D03*
X8950000Y-66250000D03*
X18050000Y-61750000D03*
X8950000Y-61750000D03*
%TD*%
D10*
%TO.C,C202*%
X12400000Y-30825000D03*
X12400000Y-32375000D03*
%TD*%
D36*
%TO.C,H3*%
X5000000Y-95000000D03*
%TD*%
D21*
%TO.C,R2*%
X72775000Y-32000000D03*
X74425000Y-32000000D03*
%TD*%
D17*
%TO.C,TP3*%
X70000000Y-42000000D03*
%TD*%
D19*
%TO.C,R201*%
X14500000Y-32425000D03*
X14500000Y-30775000D03*
%TD*%
D11*
%TO.C,R8*%
X91300000Y-33375000D03*
X91300000Y-35025000D03*
%TD*%
D10*
%TO.C,C12*%
X92800000Y-33425000D03*
X92800000Y-34975000D03*
%TD*%
D13*
%TO.C,C110*%
X42480000Y-47100000D03*
X41520000Y-47100000D03*
%TD*%
D19*
%TO.C,R108*%
X44000000Y-11325000D03*
X44000000Y-9675000D03*
%TD*%
D11*
%TO.C,R414*%
X75150000Y-90775000D03*
X75150000Y-92425000D03*
%TD*%
D17*
%TO.C,TP2*%
X66000000Y-26000000D03*
%TD*%
D32*
%TO.C,SW201*%
X32250000Y-31050000D03*
X32250000Y-21950000D03*
X36750000Y-31050000D03*
X36750000Y-21950000D03*
%TD*%
D20*
%TO.C,C129*%
X58225000Y-14000000D03*
X59775000Y-14000000D03*
%TD*%
D54*
%TO.C,C7*%
X71800000Y-19800000D03*
X71800000Y-14200000D03*
%TD*%
D20*
%TO.C,C130*%
X58225000Y-22000000D03*
X59775000Y-22000000D03*
%TD*%
D16*
%TO.C,R320*%
X9225000Y-80000000D03*
X7575000Y-80000000D03*
%TD*%
D19*
%TO.C,R109*%
X56000000Y-11325000D03*
X56000000Y-9675000D03*
%TD*%
D55*
%TO.C,F1*%
X96400000Y-36955000D03*
X96400000Y-32045000D03*
%TD*%
D11*
%TO.C,R3*%
X75400000Y-33575000D03*
X75400000Y-35225000D03*
%TD*%
D21*
%TO.C,R304*%
X36675000Y-56000000D03*
X38325000Y-56000000D03*
%TD*%
D19*
%TO.C,R412*%
X73900000Y-69225000D03*
X73900000Y-67575000D03*
%TD*%
D14*
%TO.C,C106*%
X51115000Y-60420000D03*
X52075000Y-60420000D03*
%TD*%
D56*
%TO.C,J102*%
X52890000Y-6605000D03*
X47110000Y-6605000D03*
D57*
X53200000Y-7700000D03*
D58*
X52400000Y-7680000D03*
D59*
X51250000Y-7680000D03*
X50250000Y-7680000D03*
X49750000Y-7680000D03*
X48750000Y-7680000D03*
D58*
X47600000Y-7680000D03*
D57*
X46800000Y-7700000D03*
X46800000Y-7700000D03*
D58*
X47600000Y-7680000D03*
D59*
X48250000Y-7680000D03*
X49250000Y-7680000D03*
X50750000Y-7680000D03*
X51750000Y-7680000D03*
D58*
X52400000Y-7680000D03*
D57*
X53200000Y-7700000D03*
D60*
X54320000Y-7105000D03*
D61*
X54320000Y-2925000D03*
D60*
X45680000Y-7105000D03*
D61*
X45680000Y-2925000D03*
%TD*%
D19*
%TO.C,R114*%
X63000000Y-17825000D03*
X63000000Y-16175000D03*
%TD*%
D11*
%TO.C,R213*%
X27900000Y-30775000D03*
X27900000Y-32425000D03*
%TD*%
D17*
%TO.C,TP103*%
X61000000Y-30000000D03*
%TD*%
D36*
%TO.C,H2*%
X95000000Y-5000000D03*
%TD*%
D33*
%TO.C,J401*%
X88000000Y-96000000D03*
D34*
X85460000Y-96000000D03*
X82920000Y-96000000D03*
X80380000Y-96000000D03*
X77840000Y-96000000D03*
X75300000Y-96000000D03*
%TD*%
D62*
%TO.C,U1*%
X77137500Y-22775000D03*
X77137500Y-23425000D03*
X77137500Y-24075000D03*
X77137500Y-24725000D03*
X77137500Y-25375000D03*
X77137500Y-26025000D03*
X77137500Y-26675000D03*
X77137500Y-27325000D03*
X77137500Y-27975000D03*
X77137500Y-28625000D03*
X77137500Y-29275000D03*
X77137500Y-29925000D03*
X77137500Y-30575000D03*
X77137500Y-31225000D03*
X82862500Y-31225000D03*
X82862500Y-30575000D03*
X82862500Y-29925000D03*
X82862500Y-29275000D03*
X82862500Y-28625000D03*
X82862500Y-27975000D03*
X82862500Y-27325000D03*
X82862500Y-26675000D03*
X82862500Y-26025000D03*
X82862500Y-25375000D03*
X82862500Y-24725000D03*
X82862500Y-24075000D03*
X82862500Y-23425000D03*
X82862500Y-22775000D03*
D63*
X80000000Y-27000000D03*
%TD*%
D14*
%TO.C,C118*%
X57020000Y-45700000D03*
X57980000Y-45700000D03*
%TD*%
D25*
%TO.C,R103*%
X39190000Y-32600000D03*
X40210000Y-32600000D03*
%TD*%
D12*
%TO.C,R316*%
X38500000Y-59010000D03*
X38500000Y-57990000D03*
%TD*%
D21*
%TO.C,R310*%
X30775000Y-82800000D03*
X32425000Y-82800000D03*
%TD*%
D11*
%TO.C,R210*%
X17200000Y-30775000D03*
X17200000Y-32425000D03*
%TD*%
D14*
%TO.C,C116*%
X57020000Y-44500000D03*
X57980000Y-44500000D03*
%TD*%
D64*
%TO.C,D1*%
X84450000Y-37000000D03*
X82350000Y-37000000D03*
%TD*%
D65*
%TO.C,SW402*%
X66250000Y-81950000D03*
X66250000Y-91050000D03*
X61750000Y-81950000D03*
X61750000Y-91050000D03*
%TD*%
D54*
%TO.C,C6*%
X94000000Y-19800000D03*
X94000000Y-14200000D03*
%TD*%
D25*
%TO.C,R221*%
X38990000Y-52000000D03*
X40010000Y-52000000D03*
%TD*%
D11*
%TO.C,R1*%
X91000000Y-25375000D03*
X91000000Y-27025000D03*
%TD*%
D20*
%TO.C,C1*%
X84725000Y-23300000D03*
X86275000Y-23300000D03*
%TD*%
D22*
%TO.C,R105*%
X50200000Y-57795000D03*
X50200000Y-58815000D03*
%TD*%
D29*
%TO.C,U201*%
X11090000Y-28750000D03*
X12360000Y-28750000D03*
X13630000Y-28750000D03*
X14900000Y-28750000D03*
X16170000Y-28750000D03*
X17440000Y-28750000D03*
X18710000Y-28750000D03*
X19980000Y-28750000D03*
X21250000Y-28750000D03*
X22520000Y-28750000D03*
X23790000Y-28750000D03*
X25060000Y-28750000D03*
X26330000Y-28750000D03*
X27600000Y-28750000D03*
X27600000Y-11250000D03*
X26330000Y-11250000D03*
X25060000Y-11250000D03*
X23790000Y-11250000D03*
X22520000Y-11250000D03*
X21250000Y-11250000D03*
X19980000Y-11250000D03*
X18710000Y-11250000D03*
X17440000Y-11250000D03*
X16170000Y-11250000D03*
X14900000Y-11250000D03*
X13630000Y-11250000D03*
X12360000Y-11250000D03*
X11090000Y-11250000D03*
D30*
X17978000Y-20870200D03*
X19678000Y-20870200D03*
X21378000Y-20870200D03*
X17978000Y-19170200D03*
X19678000Y-19170200D03*
X21378000Y-19170200D03*
X17978000Y-17470200D03*
X19678000Y-17470200D03*
X21378000Y-17470200D03*
D31*
X9650000Y-16000000D03*
X9650000Y-17270000D03*
X9650000Y-18540000D03*
%TD*%
D21*
%TO.C,R112*%
X57175000Y-24000000D03*
X58825000Y-24000000D03*
%TD*%
D16*
%TO.C,R315*%
X9225000Y-73450000D03*
X7575000Y-73450000D03*
%TD*%
D23*
%TO.C,C101*%
X55200000Y-43020000D03*
X55200000Y-43980000D03*
%TD*%
D24*
%TO.C,R418*%
X62510000Y-51400000D03*
X61490000Y-51400000D03*
%TD*%
D66*
%TO.C,L101*%
X52300000Y-41350000D03*
X53700000Y-41350000D03*
%TD*%
D24*
%TO.C,R417*%
X64510000Y-52700000D03*
X63490000Y-52700000D03*
%TD*%
D67*
%TO.C,U103*%
X52150000Y-20000000D03*
X52150000Y-19500000D03*
X52150000Y-19000000D03*
X52150000Y-18500000D03*
X52150000Y-18000000D03*
X47850000Y-18000000D03*
X47850000Y-18500000D03*
X47850000Y-19000000D03*
X47850000Y-19500000D03*
X47850000Y-20000000D03*
%TD*%
D36*
%TO.C,H1*%
X5000000Y-5000000D03*
%TD*%
D19*
%TO.C,R215*%
X26550000Y-9225000D03*
X26550000Y-7575000D03*
%TD*%
D21*
%TO.C,R313*%
X30775000Y-72100000D03*
X32425000Y-72100000D03*
%TD*%
D65*
%TO.C,SW401*%
X66250000Y-68950000D03*
X66250000Y-78050000D03*
X61750000Y-68950000D03*
X61750000Y-78050000D03*
%TD*%
M02*
