M48
; DRILL file KiCad 10.0.5 date 2026-09-23T15:55:58
; FORMAT={-:-/ absolute / metric / decimal}
; #@! TF.CreationDate,2026-09-23T15:55:58+08:00
; #@! TF.GenerationSoftware,Kicad,Pcbnew,10.0.5
; #@! TF.FileFunction,Plated,1,4,PTH
FMAT,2
METRIC
; #@! TA.AperFunction,Plated,PTH,ViaDrill
T1C0.200
; #@! TA.AperFunction,Plated,PTH,ViaDrill
T2C0.250
; #@! TA.AperFunction,Plated,PTH,ViaDrill
T3C0.300
; #@! TA.AperFunction,Plated,PTH,ComponentDrill
T4C0.600
; #@! TA.AperFunction,Plated,PTH,ComponentDrill
T5C1.000
; #@! TA.AperFunction,Plated,PTH,ComponentDrill
T6C1.700
%
G90
G05
T1
X8.224Y-74.501
X8.4Y-73.22
X9.92Y-78.816
X10.074Y-72.926
X12.668Y-82.161
X14.306Y-69.507
X14.374Y-54.453
X18.827Y-56.679
X19.839Y-12.667
X20.306Y-31.8
X20.498Y-36.8
X20.647Y-8.222
X23.149Y-31.816
X23.28Y-70.04
X24.742Y-39.123
X25.472Y-41.127
X25.504Y-8.229
X25.507Y-14.605
X25.507Y-57.311
X25.774Y-34.145
X26.1Y-33.204
X27.102Y-37.461
X27.625Y-9.615
X27.734Y-34.412
X28.547Y-8.421
X29.187Y-40.882
X29.545Y-46.951
X29.651Y-29.364
X29.844Y-47.773
X29.96Y-20.1
X29.96Y-63.991
X29.96Y-75.999
X30.427Y-76.78
X30.835Y-33.537
X30.883Y-74.853
X31.373Y-28.311
X32.021Y-29.362
X32.169Y-78.928
X32.187Y-64.307
X34.414Y-66.996
X35.334Y-43.717
X35.618Y-33.13
X35.721Y-32.172
X36.334Y-32.512
X36.603Y-51.906
X36.641Y-58.908
X37.164Y-43.194
X37.368Y-32.9
X37.98Y-53.082
X38.297Y-48.804
X38.448Y-47.533
X38.866Y-70.038
X38.867Y-68.26
X38.867Y-74.558
X39.453Y-46.156
X40.615Y-50.505
X40.679Y-46.422
X40.714Y-48.924
X40.717Y-76.72
X40.753Y-36.605
X40.753Y-51.185
X40.922Y-43.57
X41.075Y-57.453
X41.48Y-62.501
X43.115Y-48.59
X43.361Y-54.005
X43.454Y-60.526
X43.534Y-51.461
X43.619Y-54.909
X43.662Y-59.256
X43.899Y-34.79
X44.094Y-60.695
X44.13Y-53.563
X44.195Y-54.255
X44.271Y-52.706
X44.831Y-58.926
X45.439Y-55.588
X45.52Y-54.304
X45.829Y-52.79
X45.832Y-52.147
X45.837Y-49.0
X45.897Y-50.652
X46.003Y-43.546
X46.008Y-47.377
X46.325Y-45.931
X46.552Y-50.484
X47.029Y-9.312
X47.779Y-37.73
X47.8Y-24.6
X47.895Y-53.688
X47.895Y-56.508
X48.0Y-9.7
X48.005Y-58.824
X48.524Y-9.121
X48.621Y-55.907
X48.65Y-24.6
X48.771Y-54.13
X49.05Y-9.9
X49.2Y-42.15
X49.25Y-8.6
X50.001Y-5.465
X50.036Y-19.821
X50.25Y-8.9
X51.085Y-20.315
X51.35Y-8.9
X51.503Y-54.154
X51.533Y-57.015
X51.848Y-55.961
X52.2Y-10.0
X52.2Y-59.607
X52.36Y-56.37
X52.474Y-14.231
X52.8Y-21.6
X53.108Y-10.8
X53.7Y-21.6
X53.739Y-58.359
X53.908Y-49.11
X54.459Y-18.773
X54.53Y-54.928
X56.681Y-57.971
X58.908Y-57.807
X59.59Y-53.017
X59.713Y-38.866
X59.846Y-43.987
X59.972Y-44.6
X60.016Y-42.665
X61.675Y-40.307
X61.768Y-34.568
X66.0Y-27.156
X68.08Y-52.517
X68.341Y-55.511
X69.63Y-56.519
X70.825Y-32.2
X72.268Y-52.226
X72.453Y-92.284
X73.447Y-91.6
X74.3Y-91.322
X74.495Y-56.441
X74.518Y-72.391
X75.126Y-58.903
X76.15Y-28.625
X76.15Y-29.275
X76.721Y-70.04
X77.354Y-62.739
X77.372Y-69.402
X77.395Y-87.332
X78.891Y-73.771
X79.165Y-63.359
X79.3Y-91.725
X79.753Y-68.665
X84.0Y-33.2
X84.05Y-29.4
X88.3Y-35.75
X91.85Y-25.375
X91.85Y-31.5
T2
X43.2Y-49.8
X50.8Y-57.22
X51.7Y-42.8
X51.7Y-43.4
X54.1Y-43.25
X54.1Y-43.85
X55.65Y-44.43
X56.8Y-49.8
T3
X4.85Y-32.6
X4.85Y-33.4
X4.85Y-38.2
X7.575Y-83.8
X7.9Y-16.0
X7.9Y-18.54
X8.025Y-78.681
X8.615Y-76.052
X10.2Y-12.2
X10.2Y-27.8
X10.75Y-36.55
X11.35Y-32.375
X12.2Y-89.8
X12.839Y-82.942
X14.481Y-70.288
X14.934Y-55.023
X15.6Y-35.975
X16.0Y-92.1
X16.02Y-77.172
X16.02Y-80.322
X16.02Y-83.472
X16.2Y-7.575
X16.528Y-16.02
X16.528Y-19.17
X16.528Y-22.32
X18.091Y-56.366
X18.54Y-92.1
X19.063Y-12.862
X19.17Y-77.172
X19.17Y-83.472
X19.678Y-16.02
X19.678Y-22.32
X19.738Y-36.553
X20.987Y-7.498
X21.056Y-32.078
X21.808Y-60.659
X22.32Y-77.172
X22.32Y-80.322
X22.32Y-83.472
X22.355Y-31.915
X22.695Y-70.585
X22.828Y-16.02
X22.828Y-19.17
X22.828Y-22.32
X23.82Y-9.109
X23.942Y-39.136
X24.8Y-14.979
X24.914Y-57.848
X24.925Y-40.544
X24.974Y-34.154
X26.395Y-37.836
X27.73Y-33.612
X27.8Y-89.8
X28.505Y-10.274
X28.858Y-29.26
X29.167Y-19.997
X29.92Y-40.561
X30.038Y-33.478
X30.283Y-47.104
X30.344Y-28.699
X30.615Y-64.451
X30.92Y-77.409
X30.973Y-75.648
X32.375Y-88.65
X32.6Y-95.15
X32.625Y-79.585
X32.723Y-64.901
X33.4Y-95.15
X34.348Y-39.523
X34.668Y-32.397
X34.797Y-66.294
X35.305Y-44.517
X35.975Y-84.4
X36.55Y-89.25
X36.802Y-58.124
X37.066Y-52.559
X37.298Y-48.837
X37.769Y-56.831
X37.841Y-31.192
X37.944Y-43.015
X38.2Y-95.15
X38.211Y-46.255
X38.919Y-70.837
X38.962Y-69.054
X39.211Y-75.28
X39.4Y-40.0
X40.092Y-61.354
X40.178Y-77.311
X40.707Y-37.404
X40.78Y-49.8
X40.785Y-47.1
X40.8Y-52.2
X41.028Y-56.654
X41.086Y-42.787
X42.491Y-60.623
X42.624Y-55.012
X43.0Y-41.9
X43.023Y-52.977
X43.105Y-34.888
X43.25Y-31.79
X43.25Y-47.1
X43.25Y-52.2
X44.1Y-57.275
X44.68Y-42.8
X44.9Y-32.8
X45.5Y-57.5
X46.636Y-48.961
X46.649Y-46.982
X47.3Y-63.2
X47.4Y-60.42
X47.6Y-32.83
X47.9Y-48.9
X47.9Y-51.1
X48.7Y-57.1
X48.7Y-59.6
X48.822Y-53.331
X48.9Y-47.9
X48.9Y-52.1
X49.0Y-37.65
X49.0Y-40.05
X50.0Y-47.8
X50.8Y-5.441
X51.669Y-20.861
X51.7Y-52.2
X51.96Y-9.461
X52.1Y-48.9
X52.1Y-51.1
X52.2Y-58.82
X52.6Y-46.4
X52.7Y-64.8
X52.8Y-60.42
X54.058Y-57.426
X54.1Y-59.3
X54.484Y-19.573
X55.8Y-40.4
X55.898Y-57.808
X56.2Y-54.5
X56.5Y-36.0
X56.8Y-43.4
X57.0Y-51.4
X57.3Y-36.0
X58.124Y-57.646
X58.661Y-42.022
X58.715Y-54.5
X58.8Y-44.3
X58.8Y-45.2
X58.891Y-60.459
X59.22Y-49.5
X59.22Y-50.5
X60.3Y-39.409
X60.675Y-14.0
X62.675Y-26.0
X64.625Y-56.0
X68.777Y-56.182
X69.077Y-52.05
X70.4Y-19.1
X70.4Y-20.5
X70.4Y-21.2
X70.4Y-28.7
X71.1Y-12.0
X71.634Y-32.594
X72.467Y-90.907
X72.5Y-12.0
X72.8Y-29.6
X72.854Y-52.771
X74.45Y-29.15
X75.054Y-57.012
X75.107Y-59.703
X75.15Y-29.15
X75.255Y-72.703
X75.85Y-26.025
X75.85Y-26.675
X77.172Y-77.68
X77.172Y-80.83
X77.172Y-83.98
X78.023Y-68.938
X78.153Y-62.775
X78.167Y-87.125
X78.32Y-73.211
X79.0Y-22.1
X79.0Y-31.9
X79.0Y-32.7
X79.025Y-92.476
X79.156Y-68.133
X79.964Y-63.382
X80.0Y-22.1
X80.0Y-31.9
X80.0Y-32.7
X80.322Y-77.68
X80.322Y-83.98
X81.0Y-22.1
X81.0Y-31.9
X81.0Y-32.7
X82.35Y-37.7
X83.472Y-77.68
X83.472Y-80.83
X83.472Y-83.98
X83.8Y-92.425
X83.9Y-28.625
X84.15Y-26.025
X84.15Y-26.675
X84.4Y-64.025
X84.85Y-29.15
X85.55Y-29.15
X86.65Y-34.2
X87.05Y-29.15
X87.3Y-30.3
X87.567Y-35.821
X87.75Y-29.15
X88.0Y-30.85
X88.3Y-32.6
X88.65Y-67.625
X89.25Y-63.45
X89.8Y-72.2
X89.8Y-87.8
X90.0Y-28.725
X90.0Y-29.425
X90.4Y-40.0
X91.894Y-32.299
X92.05Y-35.1
X92.1Y-81.46
X92.1Y-84.0
X92.468Y-25.883
X93.0Y-27.1
X93.3Y-12.0
X93.5Y-40.0
X94.7Y-12.0
X95.15Y-61.8
X95.15Y-66.6
X95.15Y-67.4
X95.4Y-19.1
X95.4Y-20.5
X98.25Y-26.54
T5
X4.0Y-75.3
X4.0Y-77.84
X4.0Y-80.38
X4.0Y-82.92
X4.0Y-85.46
X4.0Y-88.0
X12.0Y-4.0
X14.54Y-4.0
X17.08Y-4.0
X19.62Y-4.0
X22.16Y-4.0
X24.7Y-4.0
X63.0Y-35.0
X63.0Y-37.54
X63.0Y-40.08
X63.0Y-42.62
X63.0Y-45.16
X75.3Y-96.0
X77.84Y-96.0
X80.38Y-96.0
X82.92Y-96.0
X85.46Y-96.0
X88.0Y-96.0
X97.0Y-24.0
X97.0Y-26.54
T6
X88.0Y-40.0
X91.96Y-40.0
T4
G00X45.68Y-3.325
M15
G01X45.68Y-2.525
M16
G05
G00X45.68Y-7.655
M15
G01X45.68Y-6.555
M16
G05
G00X54.32Y-3.325
M15
G01X54.32Y-2.525
M16
G05
G00X54.32Y-7.655
M15
G01X54.32Y-6.555
M16
G05
M30
